<?xml version="1.0" encoding="iso-8859-1"?>
<!-- Generator: Adobe Illustrator 18.0.0, SVG Export Plug-In . SVG Version: 6.00 Build 0)  -->
<!DOCTYPE svg PUBLIC "-//W3C//DTD SVG 1.1//EN" "http://www.w3.org/Graphics/SVG/1.1/DTD/svg11.dtd">
<svg version="1.1" id="Capa_1" xmlns="http://www.w3.org/2000/svg" xmlns:xlink="http://www.w3.org/1999/xlink" x="0px" y="0px"
	 viewBox="0 0 57 57" style="enable-background:new 0 0 57 57;" xml:space="preserve">
<g>
	<path d="M52.25,45.332C51.82,41.225,48.397,38,44.296,38c-2.565,0-4.984,1.286-6.479,3.402c-0.292-0.051-0.588-0.076-0.884-0.076
		c-2.32,0-4.381,1.577-5.066,3.813c-1.907,1.131-3.116,3.241-3.116,5.503c0,3.506,2.785,6.358,6.208,6.358h10.774
		c0.063,0,0.124-0.004,0.172-0.008C45.966,56.996,46.028,57,46.092,57h4.31c3.225,0,5.849-2.687,5.849-5.989
		C56.25,48.411,54.608,46.138,52.25,45.332z M50.401,55l-4.352-0.003l-0.186-0.006L34.958,55c-2.32,0-4.208-1.955-4.208-4.358
		c0-1.666,0.948-3.21,2.417-3.935l0.435-0.214l0.102-0.475c0.331-1.56,1.689-2.692,3.229-2.692c0.344,0,0.687,0.057,1.019,0.169
		l0.777,0.261l0.409-0.711C40.233,41.139,42.161,40,44.296,40c3.265,0,5.955,2.747,5.999,6.123l0.011,0.813l0.799,0.155
		c1.822,0.354,3.146,2.002,3.146,3.919C54.25,53.21,52.523,55,50.401,55z"/>
	<path d="M29.408,43.189c0.031-0.066,0.072-0.125,0.104-0.189l1.38-2c1.442-1.559,3.423-2.54,5.581-2.661
		C38.539,36.212,41.366,35,44.296,35c4.749,0,8.993,3.212,10.454,7.761V12.176C54.75,5.462,49.288,0,42.574,0H12.926
		C6.212,0,0.75,5.462,0.75,12.176v29.648C0.75,48.538,6.212,54,12.926,54h13.448c-0.397-1.044-0.623-2.174-0.623-3.358
		C25.75,47.729,27.112,44.963,29.408,43.189z M21.438,37.65l-6.857,7.999c-0.197,0.23-0.477,0.35-0.76,0.35
		c-0.209,0-0.42-0.065-0.6-0.2L8.65,42.37c-0.442-0.331-0.531-0.958-0.2-1.399c0.332-0.442,0.958-0.53,1.4-0.2l3.822,2.866
		l6.248-7.287c0.359-0.42,0.992-0.468,1.41-0.108C21.749,36.601,21.797,37.231,21.438,37.65z M21.438,22.65l-6.857,8
		c-0.197,0.23-0.477,0.35-0.76,0.35c-0.209,0-0.42-0.065-0.6-0.2L8.65,27.371c-0.442-0.331-0.531-0.958-0.2-1.399
		c0.332-0.442,0.958-0.531,1.4-0.2l3.822,2.866l6.248-7.288c0.359-0.42,0.992-0.468,1.41-0.108
		C21.749,21.601,21.797,22.231,21.438,22.65z M21.438,8.65l-6.857,8c-0.197,0.23-0.477,0.35-0.76,0.35c-0.209,0-0.42-0.065-0.6-0.2
		L8.65,13.371c-0.442-0.331-0.531-0.958-0.2-1.399c0.332-0.442,0.958-0.531,1.4-0.2l3.822,2.866l6.248-7.288
		c0.359-0.42,0.992-0.468,1.41-0.108C21.749,7.601,21.797,8.231,21.438,8.65z M27.75,12h18c0.552,0,1,0.447,1,1s-0.448,1-1,1h-18
		c-0.552,0-1-0.447-1-1S27.198,12,27.75,12z M26.75,27c0-0.553,0.448-1,1-1h18c0.552,0,1,0.447,1,1s-0.448,1-1,1h-18
		C27.198,28,26.75,27.553,26.75,27z"/>
</g>
<g>
</g>
<g>
</g>
<g>
</g>
<g>
</g>
<g>
</g>
<g>
</g>
<g>
</g>
<g>
</g>
<g>
</g>
<g>
</g>
<g>
</g>
<g>
</g>
<g>
</g>
<g>
</g>
<g>
</g>
</svg>
